<?xml version="1.0" encoding="utf-8"?>
<!-- Generator: Adobe Illustrator 15.0.0, SVG Export Plug-In . SVG Version: 6.00 Build 0)  -->
<!DOCTYPE svg PUBLIC "-//W3C//DTD SVG 1.1//EN" "http://www.w3.org/Graphics/SVG/1.1/DTD/svg11.dtd">
<svg version="1.1" id="Layer_1" xmlns="http://www.w3.org/2000/svg" xmlns:xlink="http://www.w3.org/1999/xlink" x="0px" y="0px"
	 width="325px" height="325px" viewBox="0 0 325 325" enable-background="new 0 0 325 325" xml:space="preserve">
<g>
	<g>
		<path fill="#FFFFFF" d="M125.978,290.307c-1.116-3.397-4.774-5.244-8.171-4.129c-6.04,1.983-12.359,2.99-18.782,2.99
			c-3.576,0-6.474,2.898-6.474,6.475c0,3.574,2.898,6.474,6.474,6.474c7.798,0,15.477-1.225,22.824-3.639
			C125.246,297.361,127.095,293.703,125.978,290.307z"/>
	</g>
</g>
<g>
	<g>
		<path fill="#FFFFFF" d="M73.362,283.431c-20.918-9.896-34.434-31.232-34.434-54.359c0-3.575-2.898-6.474-6.474-6.474
			s-6.474,2.898-6.474,6.474c0,14.104,4.03,27.796,11.652,39.593c7.419,11.482,17.861,20.637,30.193,26.471
			c0.895,0.423,1.836,0.623,2.765,0.623c2.425,0,4.75-1.369,5.856-3.707C77.975,288.82,76.593,284.959,73.362,283.431z"/>
	</g>
</g>
<g>
	<g>
		<path fill="#FFFFFF" d="M310.425,18.641L293.682,1.896c-2.529-2.528-6.628-2.528-9.156,0L165.979,120.442l-17.302-17.303
			c-2.528-2.527-6.628-2.527-9.157,0c-2.528,2.528-2.528,6.627,0,9.157l33.625,33.499l-11.054,11.055
			c-16.874-14.753-38.943-23.707-63.065-23.707c-52.896,0-95.929,43.034-95.929,95.93S46.129,325,99.024,325
			s95.929-43.033,95.929-95.929c0-24.123-8.953-46.192-23.707-63.067l11.056-11.055l6.989,6.989c3.275,3.276,7.518,5.12,11.729,5.12
			c0.2,0,0.401-0.004,0.603-0.012c3.63-0.154,6.859-1.695,9.094-4.342c0.066-0.078,0.129-0.156,0.191-0.236l12.202-15.905
			c6.606-8.612,14.339-16.329,22.979-22.937c10.135-7.75,28.725-22.659,40.842-32.596c4.973-4.08,9.664-8.563,13.942-13.327
			l15.232-16.963c0.053-0.059,0.103-0.118,0.153-0.176C325.619,49.351,323.111,31.328,310.425,18.641z M182.006,229.071
			c0,45.755-37.226,82.979-82.98,82.979c-45.755,0-82.981-37.225-82.981-82.979s37.225-82.981,82.98-82.981
			c20.552,0,39.381,7.514,53.89,19.935l-43.806,43.807c-3.016-1.587-6.445-2.489-10.083-2.489c-11.982,0-21.73,9.748-21.73,21.729
			s9.748,21.729,21.73,21.729s21.73-9.748,21.73-21.729c0-3.639-0.903-7.067-2.491-10.084l43.807-43.808
			C174.49,189.691,182.006,208.519,182.006,229.071z M107.807,229.071c0,4.842-3.939,8.78-8.781,8.78s-8.781-3.939-8.781-8.78
			c0-4.843,3.939-8.782,8.781-8.782C103.867,220.289,107.807,224.229,107.807,229.071z M306.385,52.188L291.24,69.053
			c-3.841,4.277-8.053,8.303-12.52,11.966c-12.032,9.869-30.47,24.657-40.494,32.323c-9.547,7.3-18.088,15.825-25.389,25.341
			l-11.84,15.432c-0.465-0.008-1.502-0.282-2.551-1.331l-23.25-23.248L289.103,15.63l12.167,12.167
			C308.893,35.418,311.172,46.332,306.385,52.188z"/>
	</g>
</g>
</svg>
